# xmcd
#
# Track frame offsets:
#	150
#	18480
#	31392
#	44110
#	59112
#	70632
#	85155
#	97562
#	111050
#	123437
#	138510
#	152470
#	165145
#	178297
#	191045
#	203412
#	219210
#	233612
#	247652
#	260107
#
# Disc length: 3621
#
# Revision: 2
# Processed by: cddbd v1.5.1PL0 Copyright (c) Steve Scherf et al.
# Submitted via: audiograbber 1.82.02
# Normalized: r1:TDELIM( - )
#
DISCID=060e2314
DTITLE=1944 - 20 Original Recordings 1944
DYEAR=1944
DGENRE=Oldies
TTITLE0=Judy Garland and the MGM Studio Chorus - The Trolly Song
TTITLE1=Margaret Whiting - Someone to watch over me
TTITLE2=Tex Ritter - I´m wasting my tears on you
TTITLE3=Benny Carter Orchestra - I can´t escape from you
TTITLE4=Joe Loss Orchestra - Cow Cow Boogie
TTITLE5=Lena Horne - Somebody loves me
TTITLE6=Eric winstone Orchestra - Journey to a star
TTITLE7=Betty Hutton - Stuff like that there
TTITLE8=Leslie hutch Hutchinson - Till stars forget to Shine
TTITLE9=Geraldo Orchestra - It can´t be wrong
TTITLE10=Jo Stafford - It could happen to you
TTITLE11=The Pied Pipers - Dream
TTITLE12=Ella Mae Morse - The Patty Cake Man
TTITLE13=Foy Willing - Texas Blues
TTITLE14=Peggy Lee - That old Feeling
TTITLE15=Anne Ziegler and Webster Booth - Indian love call
TTITLE16=Margaret Whiting - Moonlight in Vermont
TTITLE17=Anita O´Day - And her Tears flowed like wine
TTITLE18=Kay Starr - If I could be with you
TTITLE19=Johnny Mercer - Sc-cent-tchu-ate The Positive
EXTD=
EXTT0=
EXTT1=
EXTT2=
EXTT3=
EXTT4=
EXTT5=
EXTT6=
EXTT7=
EXTT8=
EXTT9=
EXTT10=
EXTT11=
EXTT12=
EXTT13=
EXTT14=
EXTT15=
EXTT16=
EXTT17=
EXTT18=
EXTT19=
PLAYORDER=
